# xmcd
#
# Track frame offsets:
#	150
#	15715
#	27633
#	39105
#	55415
#	65828
#	79892
#	96101
#	113574
#	126248
#	142582
#	154868
#	171279
#
# Disc length: 2436 seconds
#
# Revision: 1
# Processed by: cddbd v1.5.2PL0 Copyright (c) Steve Scherf et al.
# Submitted via: audiograbber 1.83.01
#
DISCID=a909820d
DTITLE=Jose Daniel - Country Serenade Jose Daniel
DYEAR=1900
DGENRE=
TTITLE0=Mexican Outlow
TTITLE1=Riding My Thomb To Mexico
TTITLE2=Pass Me By
TTITLE3=You´re Just Like Summer
TTITLE4=They Would Do It Again
TTITLE5=I´ll Always Be Yours
TTITLE6=California Slipped My Mind
TTITLE7=Where Did I Go Wrong
TTITLE8=Are You The Girl Hank Sang About
TTITLE9=Happy Anniversary
TTITLE10=Carmelia
TTITLE11=The Demo
TTITLE12=Data
EXTD=
EXTT0=
EXTT1=
EXTT2=
EXTT3=
EXTT4=
EXTT5=
EXTT6=
EXTT7=
EXTT8=
EXTT9=
EXTT10=
EXTT11=
EXTT12=
PLAYORDER=
